<svg xmlns="http://www.w3.org/2000/svg" viewBox="0 0 1600 900" width="1600" height="900" preserveAspectRatio="xMidYMid slice">
  <defs>
    <linearGradient id="sky" x1="0" y1="0" x2="0" y2="1">
      <stop offset="0" stop-color="#053a44"/><stop offset="1" stop-color="#02110f"/>
    </linearGradient>
    <radialGradient id="glow" cx="68%" cy="22%" r="55%">
      <stop offset="0" stop-color="#22b0a0" stop-opacity="0.55"/><stop offset="1" stop-color="#22b0a0" stop-opacity="0"/>
    </radialGradient>
    <pattern id="cross" width="60" height="60" patternUnits="userSpaceOnUse">
      <path d="M30 22v16M22 30h16" stroke="#ffffff" stroke-width="2" stroke-linecap="round" opacity="0.05"/>
    </pattern>
  </defs>
  <rect width="1600" height="900" fill="url(#sky)"/>
  <rect width="1600" height="900" fill="url(#glow)"/>
  <rect width="1600" height="900" fill="url(#cross)"/>
  <path d="M0 640 H70 l16 -46 l16 90 l16 -70 l12 26 H150 H220 l16 -46 l16 90 l16 -70 l12 26 H300 H370 l16 -46 l16 90 l16 -70 l12 26 H450 H520 l16 -46 l16 90 l16 -70 l12 26 H600 H670 l16 -46 l16 90 l16 -70 l12 26 H750 H820 l16 -46 l16 90 l16 -70 l12 26 H900 H970 l16 -46 l16 90 l16 -70 l12 26 H1050 H1120 l16 -46 l16 90 l16 -70 l12 26 H1200 H1270 l16 -46 l16 90 l16 -70 l12 26 H1350 H1420 l16 -46 l16 90 l16 -70 l12 26 H1500 H1570 l16 -46 l16 90 l16 -70 l12 26 H1650" stroke="#ffffff" stroke-width="2.5" fill="none" opacity="0.12"/>
  <rect x="-20" y="524" width="75" height="376" fill="#06160f" opacity="0.92"/><rect x="-2" y="548" width="10" height="14" rx="1.5" fill="#0c2a1f" opacity="0.5"/><rect x="-2" y="574" width="10" height="14" rx="1.5" fill="#F6C453" opacity="0.85"/><rect x="-2" y="600" width="10" height="14" rx="1.5" fill="#F6C453" opacity="0.85"/><rect x="-2" y="626" width="10" height="14" rx="1.5" fill="#F6C453" opacity="0.85"/><rect x="-2" y="652" width="10" height="14" rx="1.5" fill="#0c2a1f" opacity="0.5"/><rect x="-2" y="678" width="10" height="14" rx="1.5" fill="#F6C453" opacity="0.85"/><rect x="-2" y="704" width="10" height="14" rx="1.5" fill="#0c2a1f" opacity="0.5"/><rect x="27" y="548" width="10" height="14" rx="1.5" fill="#0c2a1f" opacity="0.5"/><rect x="27" y="574" width="10" height="14" rx="1.5" fill="#0c2a1f" opacity="0.5"/><rect x="27" y="600" width="10" height="14" rx="1.5" fill="#0c2a1f" opacity="0.5"/><rect x="27" y="626" width="10" height="14" rx="1.5" fill="#F6C453" opacity="0.85"/><rect x="27" y="652" width="10" height="14" rx="1.5" fill="#0c2a1f" opacity="0.5"/><rect x="27" y="678" width="10" height="14" rx="1.5" fill="#0c2a1f" opacity="0.5"/><rect x="27" y="704" width="10" height="14" rx="1.5" fill="#0c2a1f" opacity="0.5"/><rect x="70" y="746" width="147" height="154" fill="#06160f" opacity="0.92"/><rect x="240" y="539" width="75" height="361" fill="#06160f" opacity="0.92"/><rect x="258" y="563" width="10" height="14" rx="1.5" fill="#0c2a1f" opacity="0.5"/><rect x="258" y="589" width="10" height="14" rx="1.5" fill="#0c2a1f" opacity="0.5"/><rect x="258" y="615" width="10" height="14" rx="1.5" fill="#0c2a1f" opacity="0.5"/><rect x="258" y="641" width="10" height="14" rx="1.5" fill="#0c2a1f" opacity="0.5"/><rect x="258" y="667" width="10" height="14" rx="1.5" fill="#0c2a1f" opacity="0.5"/><rect x="258" y="693" width="10" height="14" rx="1.5" fill="#0c2a1f" opacity="0.5"/><rect x="287" y="563" width="10" height="14" rx="1.5" fill="#F6C453" opacity="0.85"/><rect x="287" y="589" width="10" height="14" rx="1.5" fill="#0c2a1f" opacity="0.5"/><rect x="287" y="615" width="10" height="14" rx="1.5" fill="#F6C453" opacity="0.85"/><rect x="287" y="641" width="10" height="14" rx="1.5" fill="#0c2a1f" opacity="0.5"/><rect x="287" y="667" width="10" height="14" rx="1.5" fill="#0c2a1f" opacity="0.5"/><rect x="287" y="693" width="10" height="14" rx="1.5" fill="#0c2a1f" opacity="0.5"/><rect x="338" y="576" width="146" height="324" fill="#06160f" opacity="0.92"/><rect x="354" y="600" width="10" height="14" rx="1.5" fill="#F6C453" opacity="0.85"/><rect x="354" y="626" width="10" height="14" rx="1.5" fill="#F6C453" opacity="0.85"/><rect x="354" y="652" width="10" height="14" rx="1.5" fill="#0c2a1f" opacity="0.5"/><rect x="354" y="678" width="10" height="14" rx="1.5" fill="#0c2a1f" opacity="0.5"/><rect x="354" y="704" width="10" height="14" rx="1.5" fill="#F6C453" opacity="0.85"/><rect x="380" y="600" width="10" height="14" rx="1.5" fill="#0c2a1f" opacity="0.5"/><rect x="380" y="626" width="10" height="14" rx="1.5" fill="#F6C453" opacity="0.85"/><rect x="380" y="652" width="10" height="14" rx="1.5" fill="#0c2a1f" opacity="0.5"/><rect x="380" y="678" width="10" height="14" rx="1.5" fill="#F6C453" opacity="0.85"/><rect x="380" y="704" width="10" height="14" rx="1.5" fill="#0c2a1f" opacity="0.5"/><rect x="406" y="600" width="10" height="14" rx="1.5" fill="#F6C453" opacity="0.85"/><rect x="406" y="626" width="10" height="14" rx="1.5" fill="#F6C453" opacity="0.85"/><rect x="406" y="652" width="10" height="14" rx="1.5" fill="#0c2a1f" opacity="0.5"/><rect x="406" y="678" width="10" height="14" rx="1.5" fill="#0c2a1f" opacity="0.5"/><rect x="406" y="704" width="10" height="14" rx="1.5" fill="#0c2a1f" opacity="0.5"/><rect x="432" y="600" width="10" height="14" rx="1.5" fill="#0c2a1f" opacity="0.5"/><rect x="432" y="626" width="10" height="14" rx="1.5" fill="#0c2a1f" opacity="0.5"/><rect x="432" y="652" width="10" height="14" rx="1.5" fill="#0c2a1f" opacity="0.5"/><rect x="432" y="678" width="10" height="14" rx="1.5" fill="#0c2a1f" opacity="0.5"/><rect x="432" y="704" width="10" height="14" rx="1.5" fill="#F6C453" opacity="0.85"/><rect x="458" y="600" width="10" height="14" rx="1.5" fill="#0c2a1f" opacity="0.5"/><rect x="458" y="626" width="10" height="14" rx="1.5" fill="#0c2a1f" opacity="0.5"/><rect x="458" y="652" width="10" height="14" rx="1.5" fill="#0c2a1f" opacity="0.5"/><rect x="458" y="678" width="10" height="14" rx="1.5" fill="#F6C453" opacity="0.85"/><rect x="458" y="704" width="10" height="14" rx="1.5" fill="#0c2a1f" opacity="0.5"/><rect x="514" y="521" width="128" height="379" fill="#06160f" opacity="0.92"/><rect x="532" y="545" width="10" height="14" rx="1.5" fill="#0c2a1f" opacity="0.5"/><rect x="532" y="571" width="10" height="14" rx="1.5" fill="#0c2a1f" opacity="0.5"/><rect x="532" y="597" width="10" height="14" rx="1.5" fill="#F6C453" opacity="0.85"/><rect x="532" y="623" width="10" height="14" rx="1.5" fill="#F6C453" opacity="0.85"/><rect x="532" y="649" width="10" height="14" rx="1.5" fill="#F6C453" opacity="0.85"/><rect x="532" y="675" width="10" height="14" rx="1.5" fill="#0c2a1f" opacity="0.5"/><rect x="532" y="701" width="10" height="14" rx="1.5" fill="#0c2a1f" opacity="0.5"/><rect x="559" y="545" width="10" height="14" rx="1.5" fill="#0c2a1f" opacity="0.5"/><rect x="559" y="571" width="10" height="14" rx="1.5" fill="#0c2a1f" opacity="0.5"/><rect x="559" y="597" width="10" height="14" rx="1.5" fill="#F6C453" opacity="0.85"/><rect x="559" y="623" width="10" height="14" rx="1.5" fill="#F6C453" opacity="0.85"/><rect x="559" y="649" width="10" height="14" rx="1.5" fill="#0c2a1f" opacity="0.5"/><rect x="559" y="675" width="10" height="14" rx="1.5" fill="#0c2a1f" opacity="0.5"/><rect x="559" y="701" width="10" height="14" rx="1.5" fill="#F6C453" opacity="0.85"/><rect x="587" y="545" width="10" height="14" rx="1.5" fill="#F6C453" opacity="0.85"/><rect x="587" y="571" width="10" height="14" rx="1.5" fill="#0c2a1f" opacity="0.5"/><rect x="587" y="597" width="10" height="14" rx="1.5" fill="#0c2a1f" opacity="0.5"/><rect x="587" y="623" width="10" height="14" rx="1.5" fill="#0c2a1f" opacity="0.5"/><rect x="587" y="649" width="10" height="14" rx="1.5" fill="#0c2a1f" opacity="0.5"/><rect x="587" y="675" width="10" height="14" rx="1.5" fill="#0c2a1f" opacity="0.5"/><rect x="587" y="701" width="10" height="14" rx="1.5" fill="#0c2a1f" opacity="0.5"/><rect x="614" y="545" width="10" height="14" rx="1.5" fill="#0c2a1f" opacity="0.5"/><rect x="614" y="571" width="10" height="14" rx="1.5" fill="#F6C453" opacity="0.85"/><rect x="614" y="597" width="10" height="14" rx="1.5" fill="#0c2a1f" opacity="0.5"/><rect x="614" y="623" width="10" height="14" rx="1.5" fill="#0c2a1f" opacity="0.5"/><rect x="614" y="649" width="10" height="14" rx="1.5" fill="#0c2a1f" opacity="0.5"/><rect x="614" y="675" width="10" height="14" rx="1.5" fill="#0c2a1f" opacity="0.5"/><rect x="614" y="701" width="10" height="14" rx="1.5" fill="#0c2a1f" opacity="0.5"/><rect x="673" y="726" width="116" height="174" fill="#06160f" opacity="0.92"/><rect x="817" y="613" width="77" height="287" fill="#06160f" opacity="0.92"/><rect x="836" y="637" width="10" height="14" rx="1.5" fill="#F6C453" opacity="0.85"/><rect x="836" y="663" width="10" height="14" rx="1.5" fill="#0c2a1f" opacity="0.5"/><rect x="836" y="689" width="10" height="14" rx="1.5" fill="#0c2a1f" opacity="0.5"/><rect x="836" y="715" width="10" height="14" rx="1.5" fill="#F6C453" opacity="0.85"/><rect x="865" y="637" width="10" height="14" rx="1.5" fill="#F6C453" opacity="0.85"/><rect x="865" y="663" width="10" height="14" rx="1.5" fill="#F6C453" opacity="0.85"/><rect x="865" y="689" width="10" height="14" rx="1.5" fill="#0c2a1f" opacity="0.5"/><rect x="865" y="715" width="10" height="14" rx="1.5" fill="#0c2a1f" opacity="0.5"/><rect x="916" y="531" width="145" height="369" fill="#06160f" opacity="0.92"/><rect x="932" y="555" width="10" height="14" rx="1.5" fill="#0c2a1f" opacity="0.5"/><rect x="932" y="581" width="10" height="14" rx="1.5" fill="#F6C453" opacity="0.85"/><rect x="932" y="607" width="10" height="14" rx="1.5" fill="#0c2a1f" opacity="0.5"/><rect x="932" y="633" width="10" height="14" rx="1.5" fill="#0c2a1f" opacity="0.5"/><rect x="932" y="659" width="10" height="14" rx="1.5" fill="#0c2a1f" opacity="0.5"/><rect x="932" y="685" width="10" height="14" rx="1.5" fill="#0c2a1f" opacity="0.5"/><rect x="932" y="711" width="10" height="14" rx="1.5" fill="#0c2a1f" opacity="0.5"/><rect x="958" y="555" width="10" height="14" rx="1.5" fill="#0c2a1f" opacity="0.5"/><rect x="958" y="581" width="10" height="14" rx="1.5" fill="#0c2a1f" opacity="0.5"/><rect x="958" y="607" width="10" height="14" rx="1.5" fill="#0c2a1f" opacity="0.5"/><rect x="958" y="633" width="10" height="14" rx="1.5" fill="#F6C453" opacity="0.85"/><rect x="958" y="659" width="10" height="14" rx="1.5" fill="#F6C453" opacity="0.85"/><rect x="958" y="685" width="10" height="14" rx="1.5" fill="#F6C453" opacity="0.85"/><rect x="958" y="711" width="10" height="14" rx="1.5" fill="#0c2a1f" opacity="0.5"/><rect x="984" y="555" width="10" height="14" rx="1.5" fill="#F6C453" opacity="0.85"/><rect x="984" y="581" width="10" height="14" rx="1.5" fill="#0c2a1f" opacity="0.5"/><rect x="984" y="607" width="10" height="14" rx="1.5" fill="#F6C453" opacity="0.85"/><rect x="984" y="633" width="10" height="14" rx="1.5" fill="#0c2a1f" opacity="0.5"/><rect x="984" y="659" width="10" height="14" rx="1.5" fill="#0c2a1f" opacity="0.5"/><rect x="984" y="685" width="10" height="14" rx="1.5" fill="#0c2a1f" opacity="0.5"/><rect x="984" y="711" width="10" height="14" rx="1.5" fill="#0c2a1f" opacity="0.5"/><rect x="1009" y="555" width="10" height="14" rx="1.5" fill="#F6C453" opacity="0.85"/><rect x="1009" y="581" width="10" height="14" rx="1.5" fill="#0c2a1f" opacity="0.5"/><rect x="1009" y="607" width="10" height="14" rx="1.5" fill="#0c2a1f" opacity="0.5"/><rect x="1009" y="633" width="10" height="14" rx="1.5" fill="#F6C453" opacity="0.85"/><rect x="1009" y="659" width="10" height="14" rx="1.5" fill="#0c2a1f" opacity="0.5"/><rect x="1009" y="685" width="10" height="14" rx="1.5" fill="#0c2a1f" opacity="0.5"/><rect x="1009" y="711" width="10" height="14" rx="1.5" fill="#0c2a1f" opacity="0.5"/><rect x="1035" y="555" width="10" height="14" rx="1.5" fill="#F6C453" opacity="0.85"/><rect x="1035" y="581" width="10" height="14" rx="1.5" fill="#0c2a1f" opacity="0.5"/><rect x="1035" y="607" width="10" height="14" rx="1.5" fill="#0c2a1f" opacity="0.5"/><rect x="1035" y="633" width="10" height="14" rx="1.5" fill="#0c2a1f" opacity="0.5"/><rect x="1035" y="659" width="10" height="14" rx="1.5" fill="#F6C453" opacity="0.85"/><rect x="1035" y="685" width="10" height="14" rx="1.5" fill="#0c2a1f" opacity="0.5"/><rect x="1035" y="711" width="10" height="14" rx="1.5" fill="#0c2a1f" opacity="0.5"/><rect x="1089" y="567" width="87" height="333" fill="#06160f" opacity="0.92"/><rect x="1103" y="591" width="10" height="14" rx="1.5" fill="#0c2a1f" opacity="0.5"/><rect x="1103" y="617" width="10" height="14" rx="1.5" fill="#0c2a1f" opacity="0.5"/><rect x="1103" y="643" width="10" height="14" rx="1.5" fill="#F6C453" opacity="0.85"/><rect x="1103" y="669" width="10" height="14" rx="1.5" fill="#0c2a1f" opacity="0.5"/><rect x="1103" y="695" width="10" height="14" rx="1.5" fill="#F6C453" opacity="0.85"/><rect x="1128" y="591" width="10" height="14" rx="1.5" fill="#0c2a1f" opacity="0.5"/><rect x="1128" y="617" width="10" height="14" rx="1.5" fill="#0c2a1f" opacity="0.5"/><rect x="1128" y="643" width="10" height="14" rx="1.5" fill="#0c2a1f" opacity="0.5"/><rect x="1128" y="669" width="10" height="14" rx="1.5" fill="#0c2a1f" opacity="0.5"/><rect x="1128" y="695" width="10" height="14" rx="1.5" fill="#F6C453" opacity="0.85"/><rect x="1152" y="591" width="10" height="14" rx="1.5" fill="#F6C453" opacity="0.85"/><rect x="1152" y="617" width="10" height="14" rx="1.5" fill="#0c2a1f" opacity="0.5"/><rect x="1152" y="643" width="10" height="14" rx="1.5" fill="#0c2a1f" opacity="0.5"/><rect x="1152" y="669" width="10" height="14" rx="1.5" fill="#0c2a1f" opacity="0.5"/><rect x="1152" y="695" width="10" height="14" rx="1.5" fill="#F6C453" opacity="0.85"/><rect x="1197" y="749" width="81" height="151" fill="#06160f" opacity="0.92"/><rect x="1303" y="729" width="84" height="171" fill="#06160f" opacity="0.92"/><rect x="1415" y="529" width="93" height="371" fill="#06160f" opacity="0.92"/><rect x="1431" y="553" width="10" height="14" rx="1.5" fill="#F6C453" opacity="0.85"/><rect x="1431" y="579" width="10" height="14" rx="1.5" fill="#0c2a1f" opacity="0.5"/><rect x="1431" y="605" width="10" height="14" rx="1.5" fill="#F6C453" opacity="0.85"/><rect x="1431" y="631" width="10" height="14" rx="1.5" fill="#0c2a1f" opacity="0.5"/><rect x="1431" y="657" width="10" height="14" rx="1.5" fill="#0c2a1f" opacity="0.5"/><rect x="1431" y="683" width="10" height="14" rx="1.5" fill="#0c2a1f" opacity="0.5"/><rect x="1431" y="709" width="10" height="14" rx="1.5" fill="#0c2a1f" opacity="0.5"/><rect x="1457" y="553" width="10" height="14" rx="1.5" fill="#0c2a1f" opacity="0.5"/><rect x="1457" y="579" width="10" height="14" rx="1.5" fill="#0c2a1f" opacity="0.5"/><rect x="1457" y="605" width="10" height="14" rx="1.5" fill="#F6C453" opacity="0.85"/><rect x="1457" y="631" width="10" height="14" rx="1.5" fill="#F6C453" opacity="0.85"/><rect x="1457" y="657" width="10" height="14" rx="1.5" fill="#0c2a1f" opacity="0.5"/><rect x="1457" y="683" width="10" height="14" rx="1.5" fill="#0c2a1f" opacity="0.5"/><rect x="1457" y="709" width="10" height="14" rx="1.5" fill="#F6C453" opacity="0.85"/><rect x="1482" y="553" width="10" height="14" rx="1.5" fill="#F6C453" opacity="0.85"/><rect x="1482" y="579" width="10" height="14" rx="1.5" fill="#F6C453" opacity="0.85"/><rect x="1482" y="605" width="10" height="14" rx="1.5" fill="#0c2a1f" opacity="0.5"/><rect x="1482" y="631" width="10" height="14" rx="1.5" fill="#0c2a1f" opacity="0.5"/><rect x="1482" y="657" width="10" height="14" rx="1.5" fill="#0c2a1f" opacity="0.5"/><rect x="1482" y="683" width="10" height="14" rx="1.5" fill="#F6C453" opacity="0.85"/><rect x="1482" y="709" width="10" height="14" rx="1.5" fill="#0c2a1f" opacity="0.5"/><rect x="1537" y="485" width="78" height="415" fill="#06160f" opacity="0.92"/><rect x="1549" y="509" width="10" height="14" rx="1.5" fill="#F6C453" opacity="0.85"/><rect x="1549" y="535" width="10" height="14" rx="1.5" fill="#0c2a1f" opacity="0.5"/><rect x="1549" y="561" width="10" height="14" rx="1.5" fill="#0c2a1f" opacity="0.5"/><rect x="1549" y="587" width="10" height="14" rx="1.5" fill="#F6C453" opacity="0.85"/><rect x="1549" y="613" width="10" height="14" rx="1.5" fill="#F6C453" opacity="0.85"/><rect x="1549" y="639" width="10" height="14" rx="1.5" fill="#F6C453" opacity="0.85"/><rect x="1549" y="665" width="10" height="14" rx="1.5" fill="#F6C453" opacity="0.85"/><rect x="1549" y="691" width="10" height="14" rx="1.5" fill="#0c2a1f" opacity="0.5"/><rect x="1571" y="509" width="10" height="14" rx="1.5" fill="#0c2a1f" opacity="0.5"/><rect x="1571" y="535" width="10" height="14" rx="1.5" fill="#0c2a1f" opacity="0.5"/><rect x="1571" y="561" width="10" height="14" rx="1.5" fill="#0c2a1f" opacity="0.5"/><rect x="1571" y="587" width="10" height="14" rx="1.5" fill="#F6C453" opacity="0.85"/><rect x="1571" y="613" width="10" height="14" rx="1.5" fill="#F6C453" opacity="0.85"/><rect x="1571" y="639" width="10" height="14" rx="1.5" fill="#F6C453" opacity="0.85"/><rect x="1571" y="665" width="10" height="14" rx="1.5" fill="#0c2a1f" opacity="0.5"/><rect x="1571" y="691" width="10" height="14" rx="1.5" fill="#0c2a1f" opacity="0.5"/><rect x="1593" y="509" width="10" height="14" rx="1.5" fill="#0c2a1f" opacity="0.5"/><rect x="1593" y="535" width="10" height="14" rx="1.5" fill="#0c2a1f" opacity="0.5"/><rect x="1593" y="561" width="10" height="14" rx="1.5" fill="#F6C453" opacity="0.85"/><rect x="1593" y="587" width="10" height="14" rx="1.5" fill="#0c2a1f" opacity="0.5"/><rect x="1593" y="613" width="10" height="14" rx="1.5" fill="#F6C453" opacity="0.85"/><rect x="1593" y="639" width="10" height="14" rx="1.5" fill="#0c2a1f" opacity="0.5"/><rect x="1593" y="665" width="10" height="14" rx="1.5" fill="#F6C453" opacity="0.85"/><rect x="1593" y="691" width="10" height="14" rx="1.5" fill="#0c2a1f" opacity="0.5"/>
  <!-- hospital tower -->
  <rect x="730" y="430" width="150" height="470" fill="#08231a"/>
  <rect x="747" y="454" width="10" height="14" rx="1.5" fill="#F6C453" opacity="0.85"/><rect x="747" y="480" width="10" height="14" rx="1.5" fill="#0c2a1f" opacity="0.5"/><rect x="747" y="506" width="10" height="14" rx="1.5" fill="#0c2a1f" opacity="0.5"/><rect x="747" y="532" width="10" height="14" rx="1.5" fill="#F6C453" opacity="0.85"/><rect x="747" y="558" width="10" height="14" rx="1.5" fill="#F6C453" opacity="0.85"/><rect x="747" y="584" width="10" height="14" rx="1.5" fill="#0c2a1f" opacity="0.5"/><rect x="747" y="610" width="10" height="14" rx="1.5" fill="#0c2a1f" opacity="0.5"/><rect x="747" y="636" width="10" height="14" rx="1.5" fill="#F6C453" opacity="0.85"/><rect x="747" y="662" width="10" height="14" rx="1.5" fill="#F6C453" opacity="0.85"/><rect x="747" y="688" width="10" height="14" rx="1.5" fill="#F6C453" opacity="0.85"/><rect x="747" y="714" width="10" height="14" rx="1.5" fill="#F6C453" opacity="0.85"/><rect x="773" y="454" width="10" height="14" rx="1.5" fill="#F6C453" opacity="0.85"/><rect x="773" y="480" width="10" height="14" rx="1.5" fill="#0c2a1f" opacity="0.5"/><rect x="773" y="506" width="10" height="14" rx="1.5" fill="#F6C453" opacity="0.85"/><rect x="773" y="532" width="10" height="14" rx="1.5" fill="#F6C453" opacity="0.85"/><rect x="773" y="558" width="10" height="14" rx="1.5" fill="#0c2a1f" opacity="0.5"/><rect x="773" y="584" width="10" height="14" rx="1.5" fill="#F6C453" opacity="0.85"/><rect x="773" y="610" width="10" height="14" rx="1.5" fill="#F6C453" opacity="0.85"/><rect x="773" y="636" width="10" height="14" rx="1.5" fill="#0c2a1f" opacity="0.5"/><rect x="773" y="662" width="10" height="14" rx="1.5" fill="#0c2a1f" opacity="0.5"/><rect x="773" y="688" width="10" height="14" rx="1.5" fill="#0c2a1f" opacity="0.5"/><rect x="773" y="714" width="10" height="14" rx="1.5" fill="#F6C453" opacity="0.85"/><rect x="800" y="454" width="10" height="14" rx="1.5" fill="#F6C453" opacity="0.85"/><rect x="800" y="480" width="10" height="14" rx="1.5" fill="#F6C453" opacity="0.85"/><rect x="800" y="506" width="10" height="14" rx="1.5" fill="#F6C453" opacity="0.85"/><rect x="800" y="532" width="10" height="14" rx="1.5" fill="#0c2a1f" opacity="0.5"/><rect x="800" y="558" width="10" height="14" rx="1.5" fill="#F6C453" opacity="0.85"/><rect x="800" y="584" width="10" height="14" rx="1.5" fill="#F6C453" opacity="0.85"/><rect x="800" y="610" width="10" height="14" rx="1.5" fill="#0c2a1f" opacity="0.5"/><rect x="800" y="636" width="10" height="14" rx="1.5" fill="#0c2a1f" opacity="0.5"/><rect x="800" y="662" width="10" height="14" rx="1.5" fill="#0c2a1f" opacity="0.5"/><rect x="800" y="688" width="10" height="14" rx="1.5" fill="#0c2a1f" opacity="0.5"/><rect x="800" y="714" width="10" height="14" rx="1.5" fill="#F6C453" opacity="0.85"/><rect x="827" y="454" width="10" height="14" rx="1.5" fill="#0c2a1f" opacity="0.5"/><rect x="827" y="480" width="10" height="14" rx="1.5" fill="#F6C453" opacity="0.85"/><rect x="827" y="506" width="10" height="14" rx="1.5" fill="#0c2a1f" opacity="0.5"/><rect x="827" y="532" width="10" height="14" rx="1.5" fill="#F6C453" opacity="0.85"/><rect x="827" y="558" width="10" height="14" rx="1.5" fill="#0c2a1f" opacity="0.5"/><rect x="827" y="584" width="10" height="14" rx="1.5" fill="#0c2a1f" opacity="0.5"/><rect x="827" y="610" width="10" height="14" rx="1.5" fill="#0c2a1f" opacity="0.5"/><rect x="827" y="636" width="10" height="14" rx="1.5" fill="#F6C453" opacity="0.85"/><rect x="827" y="662" width="10" height="14" rx="1.5" fill="#F6C453" opacity="0.85"/><rect x="827" y="688" width="10" height="14" rx="1.5" fill="#0c2a1f" opacity="0.5"/><rect x="827" y="714" width="10" height="14" rx="1.5" fill="#F6C453" opacity="0.85"/><rect x="853" y="454" width="10" height="14" rx="1.5" fill="#F6C453" opacity="0.85"/><rect x="853" y="480" width="10" height="14" rx="1.5" fill="#F6C453" opacity="0.85"/><rect x="853" y="506" width="10" height="14" rx="1.5" fill="#0c2a1f" opacity="0.5"/><rect x="853" y="532" width="10" height="14" rx="1.5" fill="#F6C453" opacity="0.85"/><rect x="853" y="558" width="10" height="14" rx="1.5" fill="#F6C453" opacity="0.85"/><rect x="853" y="584" width="10" height="14" rx="1.5" fill="#0c2a1f" opacity="0.5"/><rect x="853" y="610" width="10" height="14" rx="1.5" fill="#F6C453" opacity="0.85"/><rect x="853" y="636" width="10" height="14" rx="1.5" fill="#0c2a1f" opacity="0.5"/><rect x="853" y="662" width="10" height="14" rx="1.5" fill="#0c2a1f" opacity="0.5"/><rect x="853" y="688" width="10" height="14" rx="1.5" fill="#F6C453" opacity="0.85"/><rect x="853" y="714" width="10" height="14" rx="1.5" fill="#F6C453" opacity="0.85"/>
  <g transform="translate(805, 476)">
    <circle r="26" fill="#0F7A45"/>
    <path d="M-12 0H12M0 -12V12" stroke="#fff" stroke-width="6" stroke-linecap="round"/>
  </g>
  <rect x="0" y="730" width="1600" height="170" fill="#020d08"/>
  <rect width="1600" height="900" fill="url(#sky)" opacity="0.12"/>
</svg>