<svg xmlns="http://www.w3.org/2000/svg" viewBox="0 0 1600 900" width="1600" height="900" preserveAspectRatio="xMidYMid slice">
  <defs>
    <linearGradient id="sky" x1="0" y1="0" x2="0" y2="1">
      <stop offset="0" stop-color="#072a1c"/><stop offset="1" stop-color="#020d08"/>
    </linearGradient>
    <radialGradient id="glow" cx="68%" cy="22%" r="55%">
      <stop offset="0" stop-color="#19a35e" stop-opacity="0.55"/><stop offset="1" stop-color="#19a35e" stop-opacity="0"/>
    </radialGradient>
    <pattern id="cross" width="60" height="60" patternUnits="userSpaceOnUse">
      <path d="M30 22v16M22 30h16" stroke="#ffffff" stroke-width="2" stroke-linecap="round" opacity="0.05"/>
    </pattern>
  </defs>
  <rect width="1600" height="900" fill="url(#sky)"/>
  <rect width="1600" height="900" fill="url(#glow)"/>
  <rect width="1600" height="900" fill="url(#cross)"/>
  <path d="M0 640 H70 l16 -46 l16 90 l16 -70 l12 26 H150 H220 l16 -46 l16 90 l16 -70 l12 26 H300 H370 l16 -46 l16 90 l16 -70 l12 26 H450 H520 l16 -46 l16 90 l16 -70 l12 26 H600 H670 l16 -46 l16 90 l16 -70 l12 26 H750 H820 l16 -46 l16 90 l16 -70 l12 26 H900 H970 l16 -46 l16 90 l16 -70 l12 26 H1050 H1120 l16 -46 l16 90 l16 -70 l12 26 H1200 H1270 l16 -46 l16 90 l16 -70 l12 26 H1350 H1420 l16 -46 l16 90 l16 -70 l12 26 H1500 H1570 l16 -46 l16 90 l16 -70 l12 26 H1650" stroke="#ffffff" stroke-width="2.5" fill="none" opacity="0.12"/>
  <rect x="-20" y="612" width="110" height="288" fill="#06160f" opacity="0.92"/><rect x="-6" y="636" width="10" height="14" rx="1.5" fill="#0c2a1f" opacity="0.5"/><rect x="-6" y="662" width="10" height="14" rx="1.5" fill="#0c2a1f" opacity="0.5"/><rect x="-6" y="688" width="10" height="14" rx="1.5" fill="#F6C453" opacity="0.85"/><rect x="-6" y="714" width="10" height="14" rx="1.5" fill="#0c2a1f" opacity="0.5"/><rect x="18" y="636" width="10" height="14" rx="1.5" fill="#0c2a1f" opacity="0.5"/><rect x="18" y="662" width="10" height="14" rx="1.5" fill="#0c2a1f" opacity="0.5"/><rect x="18" y="688" width="10" height="14" rx="1.5" fill="#F6C453" opacity="0.85"/><rect x="18" y="714" width="10" height="14" rx="1.5" fill="#F6C453" opacity="0.85"/><rect x="42" y="636" width="10" height="14" rx="1.5" fill="#0c2a1f" opacity="0.5"/><rect x="42" y="662" width="10" height="14" rx="1.5" fill="#0c2a1f" opacity="0.5"/><rect x="42" y="688" width="10" height="14" rx="1.5" fill="#0c2a1f" opacity="0.5"/><rect x="42" y="714" width="10" height="14" rx="1.5" fill="#F6C453" opacity="0.85"/><rect x="66" y="636" width="10" height="14" rx="1.5" fill="#0c2a1f" opacity="0.5"/><rect x="66" y="662" width="10" height="14" rx="1.5" fill="#0c2a1f" opacity="0.5"/><rect x="66" y="688" width="10" height="14" rx="1.5" fill="#F6C453" opacity="0.85"/><rect x="66" y="714" width="10" height="14" rx="1.5" fill="#0c2a1f" opacity="0.5"/><rect x="114" y="515" width="117" height="385" fill="#06160f" opacity="0.92"/><rect x="129" y="539" width="10" height="14" rx="1.5" fill="#F6C453" opacity="0.85"/><rect x="129" y="565" width="10" height="14" rx="1.5" fill="#0c2a1f" opacity="0.5"/><rect x="129" y="591" width="10" height="14" rx="1.5" fill="#0c2a1f" opacity="0.5"/><rect x="129" y="617" width="10" height="14" rx="1.5" fill="#0c2a1f" opacity="0.5"/><rect x="129" y="643" width="10" height="14" rx="1.5" fill="#0c2a1f" opacity="0.5"/><rect x="129" y="669" width="10" height="14" rx="1.5" fill="#0c2a1f" opacity="0.5"/><rect x="129" y="695" width="10" height="14" rx="1.5" fill="#0c2a1f" opacity="0.5"/><rect x="155" y="539" width="10" height="14" rx="1.5" fill="#F6C453" opacity="0.85"/><rect x="155" y="565" width="10" height="14" rx="1.5" fill="#0c2a1f" opacity="0.5"/><rect x="155" y="591" width="10" height="14" rx="1.5" fill="#0c2a1f" opacity="0.5"/><rect x="155" y="617" width="10" height="14" rx="1.5" fill="#0c2a1f" opacity="0.5"/><rect x="155" y="643" width="10" height="14" rx="1.5" fill="#0c2a1f" opacity="0.5"/><rect x="155" y="669" width="10" height="14" rx="1.5" fill="#0c2a1f" opacity="0.5"/><rect x="155" y="695" width="10" height="14" rx="1.5" fill="#0c2a1f" opacity="0.5"/><rect x="180" y="539" width="10" height="14" rx="1.5" fill="#0c2a1f" opacity="0.5"/><rect x="180" y="565" width="10" height="14" rx="1.5" fill="#F6C453" opacity="0.85"/><rect x="180" y="591" width="10" height="14" rx="1.5" fill="#F6C453" opacity="0.85"/><rect x="180" y="617" width="10" height="14" rx="1.5" fill="#0c2a1f" opacity="0.5"/><rect x="180" y="643" width="10" height="14" rx="1.5" fill="#0c2a1f" opacity="0.5"/><rect x="180" y="669" width="10" height="14" rx="1.5" fill="#F6C453" opacity="0.85"/><rect x="180" y="695" width="10" height="14" rx="1.5" fill="#0c2a1f" opacity="0.5"/><rect x="206" y="539" width="10" height="14" rx="1.5" fill="#0c2a1f" opacity="0.5"/><rect x="206" y="565" width="10" height="14" rx="1.5" fill="#0c2a1f" opacity="0.5"/><rect x="206" y="591" width="10" height="14" rx="1.5" fill="#0c2a1f" opacity="0.5"/><rect x="206" y="617" width="10" height="14" rx="1.5" fill="#0c2a1f" opacity="0.5"/><rect x="206" y="643" width="10" height="14" rx="1.5" fill="#0c2a1f" opacity="0.5"/><rect x="206" y="669" width="10" height="14" rx="1.5" fill="#0c2a1f" opacity="0.5"/><rect x="206" y="695" width="10" height="14" rx="1.5" fill="#0c2a1f" opacity="0.5"/><rect x="254" y="611" width="76" height="289" fill="#06160f" opacity="0.92"/><rect x="273" y="635" width="10" height="14" rx="1.5" fill="#0c2a1f" opacity="0.5"/><rect x="273" y="661" width="10" height="14" rx="1.5" fill="#0c2a1f" opacity="0.5"/><rect x="273" y="687" width="10" height="14" rx="1.5" fill="#0c2a1f" opacity="0.5"/><rect x="273" y="713" width="10" height="14" rx="1.5" fill="#F6C453" opacity="0.85"/><rect x="301" y="635" width="10" height="14" rx="1.5" fill="#0c2a1f" opacity="0.5"/><rect x="301" y="661" width="10" height="14" rx="1.5" fill="#0c2a1f" opacity="0.5"/><rect x="301" y="687" width="10" height="14" rx="1.5" fill="#0c2a1f" opacity="0.5"/><rect x="301" y="713" width="10" height="14" rx="1.5" fill="#F6C453" opacity="0.85"/><rect x="354" y="626" width="106" height="274" fill="#06160f" opacity="0.92"/><rect x="367" y="650" width="10" height="14" rx="1.5" fill="#F6C453" opacity="0.85"/><rect x="367" y="676" width="10" height="14" rx="1.5" fill="#0c2a1f" opacity="0.5"/><rect x="367" y="702" width="10" height="14" rx="1.5" fill="#0c2a1f" opacity="0.5"/><rect x="390" y="650" width="10" height="14" rx="1.5" fill="#0c2a1f" opacity="0.5"/><rect x="390" y="676" width="10" height="14" rx="1.5" fill="#F6C453" opacity="0.85"/><rect x="390" y="702" width="10" height="14" rx="1.5" fill="#0c2a1f" opacity="0.5"/><rect x="414" y="650" width="10" height="14" rx="1.5" fill="#0c2a1f" opacity="0.5"/><rect x="414" y="676" width="10" height="14" rx="1.5" fill="#0c2a1f" opacity="0.5"/><rect x="414" y="702" width="10" height="14" rx="1.5" fill="#0c2a1f" opacity="0.5"/><rect x="437" y="650" width="10" height="14" rx="1.5" fill="#0c2a1f" opacity="0.5"/><rect x="437" y="676" width="10" height="14" rx="1.5" fill="#0c2a1f" opacity="0.5"/><rect x="437" y="702" width="10" height="14" rx="1.5" fill="#0c2a1f" opacity="0.5"/><rect x="489" y="569" width="103" height="331" fill="#06160f" opacity="0.92"/><rect x="507" y="593" width="10" height="14" rx="1.5" fill="#0c2a1f" opacity="0.5"/><rect x="507" y="619" width="10" height="14" rx="1.5" fill="#F6C453" opacity="0.85"/><rect x="507" y="645" width="10" height="14" rx="1.5" fill="#0c2a1f" opacity="0.5"/><rect x="507" y="671" width="10" height="14" rx="1.5" fill="#0c2a1f" opacity="0.5"/><rect x="507" y="697" width="10" height="14" rx="1.5" fill="#0c2a1f" opacity="0.5"/><rect x="536" y="593" width="10" height="14" rx="1.5" fill="#0c2a1f" opacity="0.5"/><rect x="536" y="619" width="10" height="14" rx="1.5" fill="#F6C453" opacity="0.85"/><rect x="536" y="645" width="10" height="14" rx="1.5" fill="#F6C453" opacity="0.85"/><rect x="536" y="671" width="10" height="14" rx="1.5" fill="#0c2a1f" opacity="0.5"/><rect x="536" y="697" width="10" height="14" rx="1.5" fill="#0c2a1f" opacity="0.5"/><rect x="564" y="593" width="10" height="14" rx="1.5" fill="#0c2a1f" opacity="0.5"/><rect x="564" y="619" width="10" height="14" rx="1.5" fill="#0c2a1f" opacity="0.5"/><rect x="564" y="645" width="10" height="14" rx="1.5" fill="#0c2a1f" opacity="0.5"/><rect x="564" y="671" width="10" height="14" rx="1.5" fill="#0c2a1f" opacity="0.5"/><rect x="564" y="697" width="10" height="14" rx="1.5" fill="#0c2a1f" opacity="0.5"/><rect x="618" y="717" width="82" height="183" fill="#06160f" opacity="0.92"/><rect x="718" y="657" width="101" height="243" fill="#06160f" opacity="0.92"/><rect x="736" y="681" width="10" height="14" rx="1.5" fill="#F6C453" opacity="0.85"/><rect x="736" y="707" width="10" height="14" rx="1.5" fill="#0c2a1f" opacity="0.5"/><rect x="764" y="681" width="10" height="14" rx="1.5" fill="#0c2a1f" opacity="0.5"/><rect x="764" y="707" width="10" height="14" rx="1.5" fill="#0c2a1f" opacity="0.5"/><rect x="791" y="681" width="10" height="14" rx="1.5" fill="#0c2a1f" opacity="0.5"/><rect x="791" y="707" width="10" height="14" rx="1.5" fill="#F6C453" opacity="0.85"/><rect x="843" y="591" width="80" height="309" fill="#06160f" opacity="0.92"/><rect x="856" y="615" width="10" height="14" rx="1.5" fill="#0c2a1f" opacity="0.5"/><rect x="856" y="641" width="10" height="14" rx="1.5" fill="#0c2a1f" opacity="0.5"/><rect x="856" y="667" width="10" height="14" rx="1.5" fill="#F6C453" opacity="0.85"/><rect x="856" y="693" width="10" height="14" rx="1.5" fill="#0c2a1f" opacity="0.5"/><rect x="878" y="615" width="10" height="14" rx="1.5" fill="#0c2a1f" opacity="0.5"/><rect x="878" y="641" width="10" height="14" rx="1.5" fill="#F6C453" opacity="0.85"/><rect x="878" y="667" width="10" height="14" rx="1.5" fill="#0c2a1f" opacity="0.5"/><rect x="878" y="693" width="10" height="14" rx="1.5" fill="#0c2a1f" opacity="0.5"/><rect x="901" y="615" width="10" height="14" rx="1.5" fill="#0c2a1f" opacity="0.5"/><rect x="901" y="641" width="10" height="14" rx="1.5" fill="#F6C453" opacity="0.85"/><rect x="901" y="667" width="10" height="14" rx="1.5" fill="#0c2a1f" opacity="0.5"/><rect x="901" y="693" width="10" height="14" rx="1.5" fill="#0c2a1f" opacity="0.5"/><rect x="947" y="517" width="103" height="383" fill="#06160f" opacity="0.92"/><rect x="965" y="541" width="10" height="14" rx="1.5" fill="#0c2a1f" opacity="0.5"/><rect x="965" y="567" width="10" height="14" rx="1.5" fill="#0c2a1f" opacity="0.5"/><rect x="965" y="593" width="10" height="14" rx="1.5" fill="#0c2a1f" opacity="0.5"/><rect x="965" y="619" width="10" height="14" rx="1.5" fill="#F6C453" opacity="0.85"/><rect x="965" y="645" width="10" height="14" rx="1.5" fill="#0c2a1f" opacity="0.5"/><rect x="965" y="671" width="10" height="14" rx="1.5" fill="#0c2a1f" opacity="0.5"/><rect x="965" y="697" width="10" height="14" rx="1.5" fill="#F6C453" opacity="0.85"/><rect x="994" y="541" width="10" height="14" rx="1.5" fill="#0c2a1f" opacity="0.5"/><rect x="994" y="567" width="10" height="14" rx="1.5" fill="#F6C453" opacity="0.85"/><rect x="994" y="593" width="10" height="14" rx="1.5" fill="#F6C453" opacity="0.85"/><rect x="994" y="619" width="10" height="14" rx="1.5" fill="#0c2a1f" opacity="0.5"/><rect x="994" y="645" width="10" height="14" rx="1.5" fill="#0c2a1f" opacity="0.5"/><rect x="994" y="671" width="10" height="14" rx="1.5" fill="#0c2a1f" opacity="0.5"/><rect x="994" y="697" width="10" height="14" rx="1.5" fill="#0c2a1f" opacity="0.5"/><rect x="1022" y="541" width="10" height="14" rx="1.5" fill="#0c2a1f" opacity="0.5"/><rect x="1022" y="567" width="10" height="14" rx="1.5" fill="#0c2a1f" opacity="0.5"/><rect x="1022" y="593" width="10" height="14" rx="1.5" fill="#F6C453" opacity="0.85"/><rect x="1022" y="619" width="10" height="14" rx="1.5" fill="#F6C453" opacity="0.85"/><rect x="1022" y="645" width="10" height="14" rx="1.5" fill="#0c2a1f" opacity="0.5"/><rect x="1022" y="671" width="10" height="14" rx="1.5" fill="#0c2a1f" opacity="0.5"/><rect x="1022" y="697" width="10" height="14" rx="1.5" fill="#0c2a1f" opacity="0.5"/><rect x="1078" y="675" width="131" height="225" fill="#06160f" opacity="0.92"/><rect x="1092" y="699" width="10" height="14" rx="1.5" fill="#0c2a1f" opacity="0.5"/><rect x="1115" y="699" width="10" height="14" rx="1.5" fill="#F6C453" opacity="0.85"/><rect x="1139" y="699" width="10" height="14" rx="1.5" fill="#F6C453" opacity="0.85"/><rect x="1162" y="699" width="10" height="14" rx="1.5" fill="#0c2a1f" opacity="0.5"/><rect x="1186" y="699" width="10" height="14" rx="1.5" fill="#F6C453" opacity="0.85"/><rect x="1234" y="754" width="90" height="146" fill="#06160f" opacity="0.92"/><rect x="1351" y="681" width="148" height="219" fill="#06160f" opacity="0.92"/><rect x="1367" y="705" width="10" height="14" rx="1.5" fill="#0c2a1f" opacity="0.5"/><rect x="1394" y="705" width="10" height="14" rx="1.5" fill="#0c2a1f" opacity="0.5"/><rect x="1420" y="705" width="10" height="14" rx="1.5" fill="#0c2a1f" opacity="0.5"/><rect x="1446" y="705" width="10" height="14" rx="1.5" fill="#0c2a1f" opacity="0.5"/><rect x="1473" y="705" width="10" height="14" rx="1.5" fill="#0c2a1f" opacity="0.5"/><rect x="1515" y="666" width="129" height="234" fill="#06160f" opacity="0.92"/><rect x="1533" y="690" width="10" height="14" rx="1.5" fill="#0c2a1f" opacity="0.5"/><rect x="1533" y="716" width="10" height="14" rx="1.5" fill="#0c2a1f" opacity="0.5"/><rect x="1561" y="690" width="10" height="14" rx="1.5" fill="#0c2a1f" opacity="0.5"/><rect x="1561" y="716" width="10" height="14" rx="1.5" fill="#0c2a1f" opacity="0.5"/><rect x="1588" y="690" width="10" height="14" rx="1.5" fill="#F6C453" opacity="0.85"/><rect x="1588" y="716" width="10" height="14" rx="1.5" fill="#0c2a1f" opacity="0.5"/><rect x="1616" y="690" width="10" height="14" rx="1.5" fill="#0c2a1f" opacity="0.5"/><rect x="1616" y="716" width="10" height="14" rx="1.5" fill="#0c2a1f" opacity="0.5"/>
  <!-- hospital tower -->
  <rect x="730" y="430" width="150" height="470" fill="#08231a"/>
  <rect x="747" y="454" width="10" height="14" rx="1.5" fill="#0c2a1f" opacity="0.5"/><rect x="747" y="480" width="10" height="14" rx="1.5" fill="#F6C453" opacity="0.85"/><rect x="747" y="506" width="10" height="14" rx="1.5" fill="#F6C453" opacity="0.85"/><rect x="747" y="532" width="10" height="14" rx="1.5" fill="#F6C453" opacity="0.85"/><rect x="747" y="558" width="10" height="14" rx="1.5" fill="#0c2a1f" opacity="0.5"/><rect x="747" y="584" width="10" height="14" rx="1.5" fill="#F6C453" opacity="0.85"/><rect x="747" y="610" width="10" height="14" rx="1.5" fill="#0c2a1f" opacity="0.5"/><rect x="747" y="636" width="10" height="14" rx="1.5" fill="#F6C453" opacity="0.85"/><rect x="747" y="662" width="10" height="14" rx="1.5" fill="#0c2a1f" opacity="0.5"/><rect x="747" y="688" width="10" height="14" rx="1.5" fill="#0c2a1f" opacity="0.5"/><rect x="747" y="714" width="10" height="14" rx="1.5" fill="#0c2a1f" opacity="0.5"/><rect x="773" y="454" width="10" height="14" rx="1.5" fill="#0c2a1f" opacity="0.5"/><rect x="773" y="480" width="10" height="14" rx="1.5" fill="#F6C453" opacity="0.85"/><rect x="773" y="506" width="10" height="14" rx="1.5" fill="#F6C453" opacity="0.85"/><rect x="773" y="532" width="10" height="14" rx="1.5" fill="#0c2a1f" opacity="0.5"/><rect x="773" y="558" width="10" height="14" rx="1.5" fill="#F6C453" opacity="0.85"/><rect x="773" y="584" width="10" height="14" rx="1.5" fill="#F6C453" opacity="0.85"/><rect x="773" y="610" width="10" height="14" rx="1.5" fill="#F6C453" opacity="0.85"/><rect x="773" y="636" width="10" height="14" rx="1.5" fill="#F6C453" opacity="0.85"/><rect x="773" y="662" width="10" height="14" rx="1.5" fill="#0c2a1f" opacity="0.5"/><rect x="773" y="688" width="10" height="14" rx="1.5" fill="#0c2a1f" opacity="0.5"/><rect x="773" y="714" width="10" height="14" rx="1.5" fill="#0c2a1f" opacity="0.5"/><rect x="800" y="454" width="10" height="14" rx="1.5" fill="#0c2a1f" opacity="0.5"/><rect x="800" y="480" width="10" height="14" rx="1.5" fill="#0c2a1f" opacity="0.5"/><rect x="800" y="506" width="10" height="14" rx="1.5" fill="#0c2a1f" opacity="0.5"/><rect x="800" y="532" width="10" height="14" rx="1.5" fill="#F6C453" opacity="0.85"/><rect x="800" y="558" width="10" height="14" rx="1.5" fill="#0c2a1f" opacity="0.5"/><rect x="800" y="584" width="10" height="14" rx="1.5" fill="#F6C453" opacity="0.85"/><rect x="800" y="610" width="10" height="14" rx="1.5" fill="#F6C453" opacity="0.85"/><rect x="800" y="636" width="10" height="14" rx="1.5" fill="#F6C453" opacity="0.85"/><rect x="800" y="662" width="10" height="14" rx="1.5" fill="#0c2a1f" opacity="0.5"/><rect x="800" y="688" width="10" height="14" rx="1.5" fill="#F6C453" opacity="0.85"/><rect x="800" y="714" width="10" height="14" rx="1.5" fill="#0c2a1f" opacity="0.5"/><rect x="827" y="454" width="10" height="14" rx="1.5" fill="#0c2a1f" opacity="0.5"/><rect x="827" y="480" width="10" height="14" rx="1.5" fill="#0c2a1f" opacity="0.5"/><rect x="827" y="506" width="10" height="14" rx="1.5" fill="#F6C453" opacity="0.85"/><rect x="827" y="532" width="10" height="14" rx="1.5" fill="#0c2a1f" opacity="0.5"/><rect x="827" y="558" width="10" height="14" rx="1.5" fill="#F6C453" opacity="0.85"/><rect x="827" y="584" width="10" height="14" rx="1.5" fill="#F6C453" opacity="0.85"/><rect x="827" y="610" width="10" height="14" rx="1.5" fill="#0c2a1f" opacity="0.5"/><rect x="827" y="636" width="10" height="14" rx="1.5" fill="#F6C453" opacity="0.85"/><rect x="827" y="662" width="10" height="14" rx="1.5" fill="#0c2a1f" opacity="0.5"/><rect x="827" y="688" width="10" height="14" rx="1.5" fill="#F6C453" opacity="0.85"/><rect x="827" y="714" width="10" height="14" rx="1.5" fill="#0c2a1f" opacity="0.5"/><rect x="853" y="454" width="10" height="14" rx="1.5" fill="#F6C453" opacity="0.85"/><rect x="853" y="480" width="10" height="14" rx="1.5" fill="#0c2a1f" opacity="0.5"/><rect x="853" y="506" width="10" height="14" rx="1.5" fill="#0c2a1f" opacity="0.5"/><rect x="853" y="532" width="10" height="14" rx="1.5" fill="#F6C453" opacity="0.85"/><rect x="853" y="558" width="10" height="14" rx="1.5" fill="#F6C453" opacity="0.85"/><rect x="853" y="584" width="10" height="14" rx="1.5" fill="#F6C453" opacity="0.85"/><rect x="853" y="610" width="10" height="14" rx="1.5" fill="#F6C453" opacity="0.85"/><rect x="853" y="636" width="10" height="14" rx="1.5" fill="#F6C453" opacity="0.85"/><rect x="853" y="662" width="10" height="14" rx="1.5" fill="#F6C453" opacity="0.85"/><rect x="853" y="688" width="10" height="14" rx="1.5" fill="#F6C453" opacity="0.85"/><rect x="853" y="714" width="10" height="14" rx="1.5" fill="#0c2a1f" opacity="0.5"/>
  <g transform="translate(805, 476)">
    <circle r="26" fill="#0F7A45"/>
    <path d="M-12 0H12M0 -12V12" stroke="#fff" stroke-width="6" stroke-linecap="round"/>
  </g>
  <rect x="0" y="730" width="1600" height="170" fill="#020d08"/>
  <rect width="1600" height="900" fill="url(#sky)" opacity="0.12"/>
</svg>